{
	"asset":{
		"generator":"Khronos glTF Blender I/O v4.2.69",
		"version":"2.0"
	},
	"scene":0,
	"scenes":[
		{
			"name":"Scene",
			"nodes":[
				2
			]
		}
	],
	"nodes":[
		{
			"mesh":0,
			"name":"Torus"
		},
		{
			"name":"Bone"
		},
		{
			"children":[
				0,
				1
			],
			"name":"Armature"
		}
	],
	"animations":[
		{
			"channels":[
				{
					"sampler":0,
					"target":{
						"node":1,
						"path":"translation"
					}
				},
				{
					"sampler":1,
					"target":{
						"node":1,
						"path":"rotation"
					}
				},
				{
					"sampler":2,
					"target":{
						"node":1,
						"path":"scale"
					}
				},
				{
					"sampler":3,
					"target":{
						"node":2,
						"path":"rotation"
					}
				}
			],
			"name":"ArmatureAction",
			"samplers":[
				{
					"input":4,
					"interpolation":"STEP",
					"output":5
				},
				{
					"input":4,
					"interpolation":"STEP",
					"output":6
				},
				{
					"input":4,
					"interpolation":"STEP",
					"output":7
				},
				{
					"input":8,
					"interpolation":"LINEAR",
					"output":9
				}
			]
		}
	],
	"materials":[
		{
			"doubleSided":true,
			"name":"Material.001",
			"pbrMetallicRoughness":{
				"baseColorFactor":[
					0.004698656499385834,
					0.8001810312271118,
					0.209985613822937,
					1
				],
				"metallicFactor":0,
				"roughnessFactor":0.5
			}
		}
	],
	"meshes":[
		{
			"name":"Torus",
			"primitives":[
				{
					"attributes":{
						"POSITION":0,
						"NORMAL":1,
						"TEXCOORD_0":2
					},
					"indices":3,
					"material":0
				}
			]
		}
	],
	"skins":[
		{
			"inverseBindMatrices":10,
			"joints":[
				1
			],
			"name":"Armature"
		}
	],
	"accessors":[
		{
			"bufferView":0,
			"componentType":5126,
			"count":2304,
			"max":[
				1.25,
				0.25,
				1.25
			],
			"min":[
				-1.25,
				-0.25,
				-1.25
			],
			"type":"VEC3"
		},
		{
			"bufferView":1,
			"componentType":5126,
			"count":2304,
			"type":"VEC3"
		},
		{
			"bufferView":2,
			"componentType":5126,
			"count":2304,
			"type":"VEC2"
		},
		{
			"bufferView":3,
			"componentType":5123,
			"count":3456,
			"type":"SCALAR"
		},
		{
			"bufferView":4,
			"componentType":5126,
			"count":2,
			"max":[
				2.5
			],
			"min":[
				0
			],
			"type":"SCALAR"
		},
		{
			"bufferView":5,
			"componentType":5126,
			"count":2,
			"type":"VEC3"
		},
		{
			"bufferView":6,
			"componentType":5126,
			"count":2,
			"type":"VEC4"
		},
		{
			"bufferView":7,
			"componentType":5126,
			"count":2,
			"type":"VEC3"
		},
		{
			"bufferView":8,
			"componentType":5126,
			"count":61,
			"max":[
				2.5
			],
			"min":[
				0
			],
			"type":"SCALAR"
		},
		{
			"bufferView":9,
			"componentType":5126,
			"count":61,
			"type":"VEC4"
		},
		{
			"bufferView":10,
			"componentType":5126,
			"count":1,
			"type":"MAT4"
		}
	],
	"bufferViews":[
		{
			"buffer":0,
			"byteLength":27648,
			"byteOffset":0,
			"target":34962
		},
		{
			"buffer":0,
			"byteLength":27648,
			"byteOffset":27648,
			"target":34962
		},
		{
			"buffer":0,
			"byteLength":18432,
			"byteOffset":55296,
			"target":34962
		},
		{
			"buffer":0,
			"byteLength":6912,
			"byteOffset":73728,
			"target":34963
		},
		{
			"buffer":0,
			"byteLength":8,
			"byteOffset":80640
		},
		{
			"buffer":0,
			"byteLength":24,
			"byteOffset":80648
		},
		{
			"buffer":0,
			"byteLength":32,
			"byteOffset":80672
		},
		{
			"buffer":0,
			"byteLength":24,
			"byteOffset":80704
		},
		{
			"buffer":0,
			"byteLength":244,
			"byteOffset":80728
		},
		{
			"buffer":0,
			"byteLength":976,
			"byteOffset":80972
		},
		{
			"buffer":0,
			"byteLength":64,
			"byteOffset":81948
		}
	],
	"buffers":[
		{
			"byteLength":82012,
			"uri":"animation.bin"
		}
	]
}
